<?xml version="1.0" encoding="UTF-8" standalone="no"?>
<!-- Created with Inkscape (http://www.inkscape.org/) -->

<svg
   xmlns:dc="http://purl.org/dc/elements/1.1/"
   xmlns:cc="http://creativecommons.org/ns#"
   xmlns:rdf="http://www.w3.org/1999/02/22-rdf-syntax-ns#"
   xmlns:svg="http://www.w3.org/2000/svg"
   xmlns="http://www.w3.org/2000/svg"
   xmlns:sodipodi="http://sodipodi.sourceforge.net/DTD/sodipodi-0.dtd"
   xmlns:inkscape="http://www.inkscape.org/namespaces/inkscape"
   version="1.1"
   id="svg10"
   width="2000"
   height="1000"
   viewBox="0 0 2000 1000"
   sodipodi:docname="LevelBoss.svg"
   inkscape:version="0.92.1 r15371">
  <metadata
     id="metadata16">
    <rdf:RDF>
      <cc:Work
         rdf:about="">
        <dc:format>image/svg+xml</dc:format>
        <dc:type
           rdf:resource="http://purl.org/dc/dcmitype/StillImage" />
      </cc:Work>
    </rdf:RDF>
  </metadata>
  <defs
     id="defs14" />
  <sodipodi:namedview
     pagecolor="#ffffff"
     bordercolor="#666666"
     borderopacity="1"
     objecttolerance="10"
     gridtolerance="10"
     guidetolerance="10"
     inkscape:pageopacity="0"
     inkscape:pageshadow="2"
     inkscape:window-width="1858"
     inkscape:window-height="1057"
     id="namedview12"
     showgrid="false"
     inkscape:zoom="2.4084057"
     inkscape:cx="94.395299"
     inkscape:cy="170.22759"
     inkscape:window-x="54"
     inkscape:window-y="-8"
     inkscape:window-maximized="1"
     inkscape:current-layer="svg10" />
  <path
     style="fill:none;stroke:#000000;stroke-width:1px;stroke-linecap:butt;stroke-linejoin:miter;stroke-opacity:1"
     d="m 0,1000 h 2000 l 2.9848,-33.217 V 0.16845006 H 0.83042488 V 974.25683 l 30.72572012,-2.49128 108.785655,-9.13467 198.88676,2.90649 70.58612,27.40402 23.25189,-9.54989 34.46264,5.81298 31.97135,-11.21074 52.73198,-6.22819 26.98881,-7.88903 31.97136,1.24564 41.10603,11.62594 16.6085,-10.38031 66.8492,-1.24563 h 287.74226 l 71.0013,21.59104 28.6496,-6.22818 30.7258,4.98254 29.0648,-14.11722 46.0886,-2.07606 9.5499,-6.6434 19.9302,-3.3217 51.9016,0.83043 19.5149,9.13467 69.3405,-1.66085 22.0063,-5.81297 h 282.7596 l 50.2408,19.09977 32.8017,4.56733 16.6085,-8.30424 20.3454,4.98255 27.4041,-3.3217 9.1346,-9.13468 23.2519,1.66085 33.217,-6.6434 19.0998,-7.05861 61.4514,3.73691 v 34.46264 H 28.234446 V 975.08725 H 0 Z"
     id="path24"
     inkscape:connector-curvature="0" />
</svg>
